<svg width="64" height="64" viewBox="0 0 64 64" fill="none" xmlns="http://www.w3.org/2000/svg">
<path d="M52 0H12C5.37258 0 0 5.37258 0 12V52C0 58.6274 5.37258 64 12 64H52C58.6274 64 64 58.6274 64 52V12C64 5.37258 58.6274 0 52 0Z" fill="#166534"/>
<path d="M30.2826 24.4327C35.7569 26.3648 41.6607 26.2575 47.0814 24.1643C47.135 21.9638 46.5447 19.7634 45.5249 17.7776L44.9882 16.7041C44.8272 16.7578 44.6125 16.8652 44.5052 16.9725C39.5675 19.334 33.9858 19.656 28.7798 17.7776C25.1302 16.4895 21.1586 16.8115 17.7237 18.5289L16.6503 19.0656C16.704 19.2267 16.8113 19.4413 16.9186 19.5487C17.5627 20.9441 18.0994 22.4469 18.4751 24.0033C22.232 22.9299 26.4183 23.0372 30.2826 24.4327Z" fill="white"/>
<path d="M16.9187 40.5874L18.0994 39.9434C20.4919 38.7472 23.1312 38.1681 25.75 38.2445C27.361 38.2914 28.9641 38.5864 30.4973 39.1383C30.9967 39.3155 31.4977 39.4782 32 39.6265V45.3473C29.922 44.961 27.8184 44.9058 25.75 45.1721C23.6044 45.4483 21.4967 46.0705 19.4948 47.0279C19.3875 47.1352 19.1728 47.2426 19.0118 47.2962L18.4751 46.2228C17.5627 44.4517 17.026 42.5196 16.9187 40.5874Z" fill="white"/>
<path d="M17.5625 35.6494C22.1245 33.7709 27.2232 33.6099 31.8925 35.2737C36.1861 36.7764 40.7481 37.0448 45.0417 36.0787C44.9881 33.6636 45.3101 31.3021 46.1688 28.9406C40.5334 30.6043 34.4687 30.4433 28.8333 28.4575C25.6131 27.2768 22.0708 27.2768 18.8506 28.3502C18.9043 30.658 18.4749 33.0195 17.6699 35.3273C17.6699 35.3273 17.6162 35.4884 17.5625 35.6494Z" fill="white"/>
</svg>
