<svg width="122" height="26" viewBox="0 0 122 26" fill="none" xmlns="http://www.w3.org/2000/svg">
<path d="M11.626 6.946C16.0055 8.49172 20.7285 8.40582 25.0651 6.73133C25.108 4.97094 24.6357 3.21055 23.8199 1.62191L23.3906 0.763184C23.2618 0.806124 23.09 0.892004 23.0041 0.977874C19.054 2.86707 14.5886 3.12469 10.4238 1.62192C7.50419 0.591454 4.32685 0.849064 1.57893 2.22302L0.720215 2.65238C0.763145 2.78119 0.849025 2.95293 0.934905 3.0388C1.45013 4.15515 1.87949 5.35737 2.18004 6.60252C5.18558 5.74379 8.53459 5.82966 11.626 6.946Z" fill="#166534"/>
<path d="M0.934937 19.87L1.87953 19.3548C3.79351 18.3978 5.90499 17.9345 8.00001 17.9956C9.28881 18.0332 10.5713 18.2692 11.7978 18.7107C12.1973 18.8525 12.5981 18.9826 13 19.1013V23.6779C11.3376 23.3688 9.65471 23.3247 8.00001 23.5377C6.2835 23.7587 4.59734 24.2564 2.99587 25.0223C2.91 25.1082 2.73825 25.1941 2.60944 25.237L2.18008 24.3783C1.45016 22.9614 1.02081 21.4157 0.934937 19.87Z" fill="#166534"/>
<path d="M1.45007 15.9198C5.09965 14.417 9.17865 14.2882 12.9141 15.6192C16.349 16.8214 19.9986 17.0361 23.4335 16.2632C23.3906 14.3311 23.6482 12.4419 24.3352 10.5527C19.8268 11.8837 14.975 11.7549 10.4667 10.1663C7.89055 9.22175 5.05672 9.22175 2.48054 10.0804C2.52348 11.9267 2.18 13.8159 1.53595 15.6621C1.53595 15.6621 1.49301 15.791 1.45007 15.9198Z" fill="#166534"/>
<path d="M36.9 6.04L33.1 6.16L32.46 10.22H31.36L31.7 5.14H43.88L44.1 10.22H43.04L42.48 6.16L38.62 6.04V18.96L41.48 19.14V20H34.28V19.14L36.9 18.96V6.04ZM45.5942 17.08C45.5942 15.7867 46.2342 14.8533 47.5142 14.28C48.7942 13.6933 50.3876 13.38 52.2942 13.34V12.72C52.2942 12.04 52.2209 11.5067 52.0742 11.12C51.9409 10.72 51.7009 10.4333 51.3542 10.26C51.0076 10.0733 50.5209 9.98 49.8942 9.98C49.2142 9.98 48.5942 10.0867 48.0342 10.3C47.4876 10.5 46.9542 10.7467 46.4342 11.04L45.9942 10.16C46.1409 10.0267 46.4476 9.84 46.9142 9.6C47.3809 9.36 47.9142 9.14667 48.5142 8.96C49.1142 8.77333 49.6942 8.68 50.2542 8.68C51.1609 8.68 51.8742 8.80667 52.3942 9.06C52.9276 9.31333 53.3076 9.72 53.5342 10.28C53.7742 10.84 53.8942 11.5933 53.8942 12.54V19.14H55.1342V19.88C54.4009 20.08 53.7809 20.18 53.2742 20.18C52.9542 20.18 52.7342 20.1267 52.6142 20.02C52.4942 19.9267 52.4342 19.7 52.4342 19.34V18.6C51.9542 19.0267 51.4276 19.4067 50.8542 19.74C50.2942 20.06 49.6542 20.22 48.9342 20.22C47.9742 20.22 47.1742 19.9533 46.5342 19.42C45.9076 18.8867 45.5942 18.1067 45.5942 17.08ZM49.5342 19.04C49.9076 19.04 50.3542 18.92 50.8742 18.68C51.3942 18.44 51.8676 18.1533 52.2942 17.82V14.28C50.6809 14.2933 49.4542 14.5333 48.6142 15C47.7876 15.4667 47.3742 16.0933 47.3742 16.88C47.3742 17.64 47.5676 18.1933 47.9542 18.54C48.3409 18.8733 48.8676 19.04 49.5342 19.04ZM58.247 18.42C58.3937 18.6467 58.7004 18.8467 59.167 19.02C59.6337 19.1933 60.1337 19.28 60.667 19.28C62.2937 19.28 63.107 18.68 63.107 17.48C63.107 16.9333 62.8804 16.4933 62.427 16.16C61.9737 15.8133 61.2004 15.4333 60.107 15.02C59.027 14.6333 58.2404 14.1733 57.747 13.64C57.2537 13.1067 57.007 12.3933 57.007 11.5C57.007 10.9267 57.1804 10.4267 57.527 10C57.887 9.57333 58.3604 9.24667 58.947 9.02C59.547 8.78 60.1937 8.66 60.887 8.66C61.567 8.66 62.1337 8.72 62.587 8.84C63.0537 8.96 63.5137 9.10667 63.967 9.28V11.66H62.987L62.627 10.2C62.5337 10.0267 62.2937 9.88 61.907 9.76C61.5337 9.64 61.1204 9.58 60.667 9.58C60.027 9.58 59.507 9.72667 59.107 10.02C58.707 10.3 58.507 10.68 58.507 11.16C58.507 11.5867 58.607 11.94 58.807 12.22C59.007 12.5 59.2537 12.7267 59.547 12.9C59.8404 13.06 60.247 13.2467 60.767 13.46L61.147 13.62C61.907 13.9133 62.5204 14.1933 62.987 14.46C63.4537 14.7133 63.8404 15.0533 64.147 15.48C64.4537 15.8933 64.607 16.4133 64.607 17.04C64.607 18.0267 64.227 18.8067 63.467 19.38C62.7204 19.94 61.7204 20.22 60.467 20.22C59.8937 20.22 59.2404 20.1267 58.507 19.94C57.7737 19.7533 57.227 19.5667 56.867 19.38V16.86H57.947L58.247 18.42ZM67.6689 4.88L66.0289 4.7V3.96L68.8889 3.62H68.9089L69.2889 3.88V13.82L69.2489 15.08L74.2089 9.98L72.7089 9.7V8.9H77.3089V9.7L75.7689 9.98L72.5289 13.16L76.5089 19L77.8289 19.14V20H73.2489V19.14L74.6289 18.98L71.4889 14.06L69.2489 16.26L69.2889 17.28V18.98L70.8289 19.14V20H66.3489V19.14L67.6689 18.98V4.88ZM83.27 5H84.91L89.93 18.96L91.23 19.14V20H86.35V19.14L88.11 18.96L87.05 15.78H80.81L79.75 18.94L81.53 19.14V20H77.03V19.14L78.31 18.96L83.27 5ZM84.43 8.08L83.87 6.18L83.33 8.14L81.15 14.74H86.69L84.43 8.08ZM102.521 14.04C102.521 15.1867 102.288 16.2333 101.821 17.18C101.354 18.1133 100.688 18.8533 99.8209 19.4C98.9676 19.9467 97.9876 20.22 96.8809 20.22C96.5076 20.22 96.1143 20.1867 95.7009 20.12C95.2876 20.0667 94.9476 19.9933 94.6809 19.9L94.7209 21.6V23.76L96.9409 23.96V24.84H91.5809V23.96L93.1209 23.76V10.22L91.5609 9.88V8.98L94.1209 8.66H94.1609L94.5209 8.98V10.2C94.9476 9.76 95.4676 9.38667 96.0809 9.08C96.6943 8.76 97.3809 8.6 98.1409 8.6C98.9143 8.6 99.6343 8.79333 100.301 9.18C100.968 9.56667 101.501 10.1667 101.901 10.98C102.314 11.7933 102.521 12.8133 102.521 14.04ZM97.4809 9.82C96.9076 9.82 96.3743 9.94 95.8809 10.18C95.3876 10.42 95.0009 10.6867 94.7209 10.98V18.6C94.8276 18.7733 95.0943 18.9333 95.5209 19.08C95.9609 19.2133 96.4409 19.28 96.9609 19.28C98.1076 19.28 99.0276 18.86 99.7209 18.02C100.428 17.1667 100.781 15.9133 100.781 14.26C100.781 12.78 100.468 11.6733 99.8409 10.94C99.2276 10.1933 98.4409 9.82 97.4809 9.82ZM115.001 14.04C115.001 15.1867 114.768 16.2333 114.301 17.18C113.835 18.1133 113.168 18.8533 112.301 19.4C111.448 19.9467 110.468 20.22 109.361 20.22C108.988 20.22 108.595 20.1867 108.181 20.12C107.768 20.0667 107.428 19.9933 107.161 19.9L107.201 21.6V23.76L109.421 23.96V24.84H104.061V23.96L105.601 23.76V10.22L104.041 9.88V8.98L106.601 8.66H106.641L107.001 8.98V10.2C107.428 9.76 107.948 9.38667 108.561 9.08C109.175 8.76 109.861 8.6 110.621 8.6C111.395 8.6 112.115 8.79333 112.781 9.18C113.448 9.56667 113.981 10.1667 114.381 10.98C114.795 11.7933 115.001 12.8133 115.001 14.04ZM109.961 9.82C109.388 9.82 108.855 9.94 108.361 10.18C107.868 10.42 107.481 10.6867 107.201 10.98V18.6C107.308 18.7733 107.575 18.9333 108.001 19.08C108.441 19.2133 108.921 19.28 109.441 19.28C110.588 19.28 111.508 18.86 112.201 18.02C112.908 17.1667 113.261 15.9133 113.261 14.26C113.261 12.78 112.948 11.6733 112.321 10.94C111.708 10.1933 110.921 9.82 109.961 9.82Z" fill="black"/>
</svg>
